<?xml version="1.0" standalone="no"?>
<!DOCTYPE svg PUBLIC "-//W3C//DTD SVG 20010904//EN"
 "http://www.w3.org/TR/2001/REC-SVG-20010904/DTD/svg10.dtd">
<svg version="1.0" xmlns="http://www.w3.org/2000/svg"
 width="344.000000pt" height="379.000000pt" viewBox="0 0 344.000000 379.000000"
 preserveAspectRatio="xMidYMid meet">
<metadata>
Created by potrace 1.16, written by Peter Selinger 2001-2019
</metadata>
<g transform="translate(0.000000,379.000000) scale(0.100000,-0.100000)"
fill="#000000" stroke="none">
<path d="M1027 3703 c-59 -124 -62 -185 -13 -315 40 -107 44 -146 19 -185 -10
-15 -72 -71 -138 -126 -111 -91 -337 -318 -428 -429 -21 -26 -61 -64 -88 -85
-29 -21 -52 -49 -55 -63 -4 -14 -37 -54 -75 -90 -66 -63 -69 -68 -69 -112 0
-28 -12 -74 -31 -119 -108 -262 -149 -447 -149 -674 0 -135 3 -166 29 -266 15
-63 41 -145 56 -184 108 -273 320 -515 579 -660 64 -36 74 -46 101 -101 42
-86 67 -116 138 -170 96 -72 198 -116 284 -122 58 -4 78 -1 99 13 26 17 27 19
21 92 -5 67 -4 74 11 68 41 -15 185 -26 272 -20 142 10 242 30 385 76 l130 42
205 1 c201 1 206 2 270 29 l64 27 71 -29 c38 -16 111 -42 160 -57 77 -23 101
-26 169 -20 68 5 84 9 108 33 23 22 28 35 28 75 0 61 -18 106 -70 171 l-41 51
45 38 c38 32 51 55 85 142 81 207 100 368 66 571 -20 120 -19 253 1 323 13 44
28 68 66 104 74 72 102 141 106 260 4 114 -19 221 -74 337 -62 132 -102 187
-233 318 -193 193 -294 354 -328 519 l-15 73 37 107 c37 106 37 109 30 213 -4
58 -12 112 -17 119 -31 38 -172 -11 -323 -113 l-114 -76 -108 32 -107 32 -219
-7 c-150 -4 -238 -3 -285 5 -66 12 -68 13 -158 103 -127 127 -147 136 -318
136 l-137 0 -42 -87z m1013 -771 c47 -35 51 -103 9 -155 -16 -22 -29 -27 -64
-27 -24 0 -51 3 -60 6 -24 10 -45 58 -45 104 0 33 6 48 30 72 27 26 36 30 68
24 20 -3 48 -14 62 -24z m537 8 c89 -54 92 -173 4 -173 -38 0 -62 22 -85 81
-37 98 1 141 81 92z m71 -736 c23 -15 122 -207 135 -261 12 -53 -77 -123 -158
-123 -47 0 -118 33 -145 67 -27 34 -25 60 10 194 33 128 53 155 104 145 17 -4
41 -13 54 -22z m-1840 -120 c98 -49 159 -145 182 -286 21 -131 6 -259 -44
-371 -14 -32 -26 -62 -26 -67 0 -6 20 -19 45 -31 195 -92 170 -397 -41 -499
-48 -24 -105 -30 -219 -21 -22 1 -54 0 -71 -4 -61 -13 -59 -27 -55 546 l3 517
-22 12 c-17 9 -25 9 -39 -4 -37 -33 -98 -6 -85 38 50 161 227 242 372 170z
m540 -28 l20 -33 -39 -12 c-21 -6 -43 -20 -49 -31 -7 -12 -9 -204 -8 -557 l3
-538 32 -14 c35 -15 47 -44 32 -73 -8 -16 -23 -18 -113 -18 -86 0 -105 3 -110
16 -13 35 -6 56 24 67 l30 11 0 553 0 552 -30 21 c-31 22 -39 57 -18 78 8 8
47 12 109 12 l97 0 20 -34z m583 4 c21 -12 25 -50 7 -68 -8 -8 -49 -12 -120
-12 l-108 0 0 -584 c0 -518 -2 -586 -16 -600 -18 -19 -38 -20 -65 -6 -18 10
-19 28 -19 590 0 671 15 600 -125 600 -82 0 -86 1 -97 26 -11 23 -10 29 11 45
21 17 43 19 268 19 149 0 252 -4 264 -10z"/>
<path d="M680 1671 c0 -193 2 -351 5 -351 24 0 103 51 134 86 72 82 102 254
70 406 -21 100 -81 181 -143 193 -17 4 -39 9 -48 11 -17 5 -18 -16 -18 -345z"/>
<path d="M777 1245 c-118 -24 -107 -6 -107 -174 l0 -149 44 -11 c122 -31 218
6 267 101 25 50 25 133 -1 175 -39 64 -95 80 -203 58z"/>
</g>
</svg>
